<svg width="15" height="23" viewBox="0 0 15 23" fill="none" xmlns="http://www.w3.org/2000/svg">
<path id="Vector" d="M4.9297 22.2919L14.2372 10.415C14.4156 10.195 14.5088 9.98489 14.5088 9.745C14.5088 9.33582 14.1884 9.03071 13.7466 9.03071H8.05711L11.0069 1.21689C11.4199 0.125927 10.2717 -0.459019 9.57919 0.442814L0.271647 12.3133C0.0932723 12.5398 0 12.7516 0 12.9834C0 13.399 0.320475 13.7041 0.762323 13.7041H6.45175L3.50191 21.5097C3.08895 22.6007 4.23892 23.1856 4.9297 22.2919ZM5.51404 19.527L8.94559 12.0973H2.74416L9.33743 3.36794L8.98845 3.2095L5.56685 10.6374H11.7583L5.16507 19.3668L5.51404 19.527Z" fill="#BEBFC7"/>
</svg>
