<svg width="12" height="20" viewBox="0 0 12 20" fill="none" xmlns="http://www.w3.org/2000/svg">
<path id="Vector" d="M1.85383 18.7589L4.33119 15.8153C4.57422 15.5235 4.61779 15.4526 4.71533 15.1489L4.86782 14.6767L3.50649 12.9689L3.11697 14.765L0.679449 17.6539C-0.119727 18.6134 1.19722 19.5499 1.85383 18.7589ZM7.83302 18.5077C8.35747 19.5676 9.92185 18.9125 9.35385 17.7602L7.67661 14.3637C7.5451 14.1088 7.3744 13.831 7.21268 13.5998L6.15973 12.1065L6.2285 11.8987C6.5034 11.0359 6.61784 10.5245 6.68141 9.67858L6.8469 7.3002C6.92965 6.15004 6.24492 5.28714 5.07542 5.28714C4.20146 5.28714 3.60158 5.73111 2.8029 6.51354L1.54317 7.75409C1.13089 8.15824 0.993528 8.49361 0.951424 9.03948L0.802188 10.9827C0.75862 11.4909 1.04441 11.8498 1.51195 11.866C1.98909 11.9 2.28154 11.6143 2.32365 11.0764L2.5106 8.9566L3.08495 8.4377C3.28978 8.25431 3.55736 8.3741 3.54632 8.5921L3.41773 10.3561C3.34457 11.2643 3.55152 11.7111 4.18975 12.5067L5.85882 14.5962C6.01993 14.8061 6.03911 14.8844 6.11373 15.0203L7.83302 18.5077ZM10.7188 8.49673H8.83232L7.68445 7.22461L7.53893 9.27573L7.9431 9.67838C8.21194 9.94729 8.44979 10.033 8.95065 10.033H10.7188C11.2313 10.033 11.5711 9.74052 11.5711 9.26484C11.5711 8.80393 11.2218 8.49673 10.7188 8.49673ZM6.00919 4.58924C7.01239 4.58924 7.82428 3.76926 7.82428 2.76605C7.82428 1.7562 7.01239 0.944336 6.00919 0.944336C4.99933 0.944336 4.18601 1.7562 4.18601 2.76605C4.18601 3.76926 4.99933 4.58924 6.00919 4.58924Z" fill="#272D2E"/>
</svg>
