<svg width="14" height="18" viewBox="0 0 14 18" fill="none" xmlns="http://www.w3.org/2000/svg">
<path id="Vector" d="M9.60187 3.91976C10.5511 3.91976 11.3156 3.15666 11.3156 2.20744C11.3156 1.26448 10.5511 0.5 9.60187 0.5C8.6526 0.5 7.88954 1.26448 7.88954 2.20744C7.88954 3.15666 8.6526 3.91976 9.60187 3.91976ZM6.70086 17.5C10.1008 17.5 12.3763 15.234 12.3763 11.8782C12.3763 10.0983 11.5257 9.06759 9.94917 9.06759H8.91574C8.74277 9.06759 8.6337 8.95435 8.70104 8.74872L9.41221 6.59507C9.74139 5.59374 9.26643 4.69784 8.16917 4.42005L4.98211 3.61859C4.67512 3.54219 4.44179 3.59292 4.15712 3.75749L1.06175 5.50206C0.690283 5.71384 0.604866 6.2479 0.865244 6.59644C1.11386 6.94851 1.55348 7.01377 1.9555 6.80685L4.79462 5.30463L6.44964 5.74563C6.76916 5.83594 6.88865 6.052 6.78169 6.34859L5.91146 8.7939C5.50729 9.95159 6.18376 10.9384 7.31007 10.9384H10.0807C10.6732 10.9384 11.083 11.2912 11.083 11.8782C11.083 14.4562 9.32785 16.2066 6.70712 16.2066C4.05474 16.2066 2.28847 14.4274 2.28847 11.8107C2.28847 10.9428 2.53113 10.1771 2.94538 9.53166C3.44887 8.72316 2.33814 8.05209 1.79934 8.94C1.29754 9.74929 0.995134 10.7226 0.995134 11.8107C0.995134 15.2065 3.26169 17.5 6.70086 17.5ZM12.4116 17.5C12.8969 17.5 13.2837 17.1133 13.2837 16.6293C13.2837 16.1453 12.8969 15.7586 12.4116 15.7586C11.9277 15.7586 11.5409 16.1453 11.5409 16.6293C11.5409 17.1133 11.9277 17.5 12.4116 17.5Z" fill="#272D2E"/>
</svg>
